<svg width="24" height="24" viewBox="0 0 24 24" fill="none" xmlns="http://www.w3.org/2000/svg">
<path d="M15.3294 3.08508L10.7714 6.01074L11.2334 6.26372L15.2886 3.66075L22.1668 7.55682L18.2216 10.0891L18.4137 10.1943V10.5153L21.5039 8.53177L22.1524 8.89918L18.4137 11.2989V11.8485L21.4434 9.90375L22.1524 10.3055L18.4137 12.7052V13.2548L21.4434 11.3101L22.1524 11.7118L18.4137 14.1115V14.6611L23.1027 11.6512L21.9389 10.9921L23.1027 10.245L21.9389 9.58575L23.1026 8.83871L21.9994 8.21372L23.1169 7.4963L15.3294 3.08508H15.3294ZM16.7857 5.18227C15.7995 5.67708 14.486 5.7608 13.5611 5.38772L11.7532 6.54821L17.7018 9.80461L19.4165 8.70399C18.7411 8.17074 18.7973 7.37508 19.5544 6.75071L16.7856 5.18227H16.7857ZM10.6643 6.91402L7.35078 9.07468L13.7075 12.734L13.7698 12.6942C13.887 12.6187 14.0525 12.5118 14.2499 12.3842C14.6446 12.1291 15.1669 11.7908 15.6878 11.4533C16.4379 10.9672 16.8244 10.7164 17.1838 10.4832L10.6643 6.91402ZM16.0768 6.96886C16.0768 6.96886 16.0769 6.96886 16.0769 6.96886C16.2268 6.96978 16.3643 7.00191 16.4669 7.06004C16.5267 7.09386 16.573 7.13559 16.6033 7.18283C16.6336 7.23007 16.6472 7.2819 16.6434 7.33537C16.6396 7.38883 16.6185 7.44287 16.5812 7.49442C16.5439 7.54596 16.4912 7.59398 16.4262 7.63576C16.3611 7.67753 16.2849 7.71222 16.2019 7.73787C16.1189 7.76351 16.0308 7.7796 15.9426 7.78522C15.8543 7.79083 15.7677 7.78586 15.6876 7.77059C15.6075 7.75532 15.5356 7.73005 15.4759 7.69622C15.3553 7.62791 15.2918 7.52888 15.2994 7.42094C15.3071 7.31298 15.3852 7.20495 15.5166 7.1206C15.5913 7.07268 15.6804 7.03415 15.7774 7.00788C15.8744 6.9816 15.9767 6.96827 16.0768 6.96886ZM5.83821 9.17738L0.897354 12.3487L2.00065 12.9737L0.883057 13.6911L2.04687 14.3503L0.883057 15.0974L2.04687 15.7566L0.883057 16.5037L8.67064 20.9149L13.3724 17.8968V17.3475L8.71146 20.3392L1.83331 16.4431L2.50151 16.0142L8.67064 19.5086L13.3724 16.4906V15.9412L8.71146 18.933L1.83331 15.0368L2.50151 14.6079L8.67064 18.1023L13.3724 15.0843V14.535L8.71146 17.5267L1.83331 13.6306L2.45534 13.2312L8.68503 16.76L13.3724 13.7512V13.5144L13.1155 13.3666L8.72567 16.1843L1.8477 12.2882L6.28957 9.43707L5.83817 9.17724L5.83821 9.17738ZM6.79728 9.72957L4.5979 11.1412C5.27337 11.6744 5.21712 12.47 4.45999 13.0945L7.22881 14.6629C8.21492 14.1681 9.52835 14.0844 10.4532 14.4574L12.6078 13.0744L6.79718 9.72952L6.79728 9.72957ZM17.5699 11.2385C17.1929 11.483 16.8604 11.6989 16.1467 12.1613C15.6258 12.499 15.1033 12.8373 14.7081 13.0929C14.5104 13.2206 14.3446 13.3277 14.2263 13.4038C14.2221 13.4066 14.2204 13.4075 14.2162 13.4102V17.4379L17.57 15.1838L17.5699 11.2385ZM8.14854 12.0578C8.29847 12.0588 8.43592 12.091 8.53854 12.1491C8.65914 12.2174 8.7226 12.3165 8.71495 12.4244C8.7073 12.5324 8.62918 12.6404 8.49776 12.7247C8.36635 12.8091 8.19242 12.8628 8.01424 12.8742C7.83606 12.8855 7.66821 12.8535 7.5476 12.7852C7.427 12.7169 7.36355 12.6179 7.3712 12.5099C7.37885 12.402 7.45697 12.2939 7.58838 12.2096C7.66302 12.1617 7.75216 12.1232 7.84915 12.0969C7.94615 12.0706 8.04849 12.0573 8.14854 12.0579V12.0578Z" fill="black"/>
</svg>
