<svg width="24" height="24" viewBox="0 0 24 24" fill="none" xmlns="http://www.w3.org/2000/svg">
<path d="M11.625 0.951569L3.39047 6.21563L11.625 6.03751V0.951569ZM12.375 0.951569V6.03751L20.6109 6.21563L12.375 0.951569ZM14.7844 3.71251C15.0703 3.87657 15.1687 4.05001 15.4922 3.90938C15.9937 3.94688 16.5375 4.18126 16.7859 4.64532C17.0063 4.85626 16.8562 5.23594 16.5422 5.23594C16.0875 5.24063 15.6187 4.95001 15.8578 4.84688C16.0781 4.75313 16.5469 4.88907 16.3266 4.58907C16.1578 4.37813 15.8109 4.22344 15.5625 4.31251C15.4875 4.63126 15.1219 4.50001 15 4.27969C14.8922 4.00782 14.5734 3.89532 14.2969 3.90938C14.0109 4.03594 14.3719 4.32188 14.5453 4.37344C14.9156 4.47657 14.5547 4.72501 14.3531 4.61251C14.1563 4.50001 13.65 4.16251 13.7203 3.75469C13.9922 3.40829 14.4609 3.53813 14.7844 3.71251ZM9.69844 3.54844C9.95625 3.57188 10.275 3.68907 10.1766 4.01251C9.975 4.34063 9.71719 4.62657 9.32812 4.70626C9.02344 4.86563 8.62969 4.91251 8.31562 4.79532C8.14219 4.68751 7.68281 4.35938 7.61719 4.63594C7.51875 5.32969 7.65 5.25001 7.09687 5.47032V4.32657C7.56094 4.14376 8.08594 4.11563 8.51719 4.38751C8.89219 4.58438 9.42656 4.45782 9.65156 4.12032C9.71719 3.81563 9.27187 3.90469 9.07969 3.96094C8.95312 3.57657 9.45 3.60938 9.69844 3.54844ZM11.3391 6.79219L2.59641 6.98438L5.93437 16.0266L11.3391 6.79219ZM12.6609 6.79219L18.0656 16.0266L21.4031 6.98438L12.6609 6.79219ZM12 7.14376L6.51094 16.5281H17.4891L12 7.14376ZM18.2484 8.13282C18.9 8.52188 19.2563 9.36094 19.2844 10.1484C19.2234 10.7859 19.2516 11.0766 18.5719 11.1516C17.8922 11.2266 17.4516 10.2516 17.1797 9.62344C17.0203 9.15938 16.9078 8.49844 17.2594 8.15626C17.5453 7.93126 17.9625 7.96407 18.2484 8.13282ZM7.7625 8.88751C7.86094 9.07501 7.73906 9.42188 7.5375 9.45469C7.30781 9.48751 7.35937 9.01876 7.09687 8.91094C6.77344 8.80313 6.45937 9.17344 6.39375 9.45469C6.88125 9.26719 7.34531 9.78751 7.34531 10.2516C7.32656 10.8 6.975 11.4141 6.42188 11.5688H6.15937C5.56406 11.5359 5.30156 10.8281 5.49375 10.3219C5.7 9.58126 6 8.73282 6.76875 8.41876C7.16719 8.23594 7.65938 8.56876 7.7625 8.88751ZM17.7891 8.49376C17.4563 8.48907 17.5828 8.96251 17.6344 9.17344C17.7984 9.71251 17.9766 10.4203 18.5203 10.5797C18.8391 10.5234 18.7266 9.97969 18.6937 9.80626C18.4734 9.29532 18.3609 8.71407 17.7891 8.49376ZM2.4375 8.71876V16.8375L5.33906 16.5703L2.4375 8.71876ZM21.5625 8.71876L18.6609 16.5703L21.5625 16.8375V8.71876ZM16.0359 8.75157L17.3719 11.7281L16.9031 11.9344L15.9656 9.90469C15.6797 10.0453 15.3562 10.3219 15.2812 9.83907C15.2203 9.65626 15.6797 9.60001 15.6609 9.28126C15.6469 8.95782 15.7641 8.70938 16.0359 8.75157ZM6.09844 10.0359C5.98594 10.275 5.90625 10.5188 5.97188 10.7813C6.05156 11.1938 6.60469 11.0813 6.70312 10.7438C6.82969 10.5094 6.88594 10.1953 6.67969 10.0078C6.4875 9.84844 6.2625 9.87657 6.09844 10.0359ZM21.4922 11.9859C21.4875 12.8578 21.5437 13.8234 21.0375 14.5781C20.9953 14.6344 20.9344 14.6672 20.8641 14.6953C20.5922 14.5031 20.7234 14.1656 20.9203 13.9688C20.9672 14.3109 21.1781 13.8328 21.2297 13.7063C21.2906 13.5563 21.3984 12.8766 21.1828 13.2281C21.2156 13.4156 20.8641 13.8422 20.7469 13.6078C20.5125 12.9328 20.7469 12.1781 21.075 11.5688C21.3422 11.2781 21.5391 11.775 21.4922 11.9859ZM2.80922 11.5078C2.83688 11.5125 2.87203 11.5547 2.92547 11.6766V14.5406C2.58328 14.2125 2.71594 13.6969 2.71687 13.3031C2.71687 12.9094 2.79422 12.5391 2.65688 12.2156C2.44031 12.1359 2.38547 11.4188 2.50828 11.6203C2.715 11.8453 2.72672 11.4938 2.80922 11.5078ZM11.1891 11.8641C11.5687 12.075 11.8359 12.5391 11.6953 12.9703C11.5969 13.6828 10.4297 13.9594 10.2703 14.3625C10.2141 14.5031 11.4609 14.4375 11.6859 14.4375C11.7094 14.625 11.7563 14.9391 11.5078 14.9859C10.8281 14.9297 10.1062 14.9578 9.39375 14.9578C9.4125 14.4328 9.74062 13.9594 10.1906 13.7016C10.5141 13.4719 10.9125 13.2656 11.0391 12.8625C11.1234 12.6516 11.0109 12.4266 10.8234 12.3234C10.6266 12.1875 10.3078 12.2156 10.2047 12.45C10.1109 12.6281 9.99844 12.8766 9.79688 12.9C9.66094 12.9188 9.375 12.9234 9.45938 12.6703C9.525 12.4078 9.61875 12.1313 9.84375 11.9578C10.2562 11.6625 10.7766 11.6438 11.1891 11.8641ZM13.6875 11.7984C14.0063 11.9016 14.25 12.1688 14.3578 12.4828C14.6437 13.1719 14.6156 14.0344 14.1516 14.6344C13.9406 14.8594 13.6734 15.0609 13.3547 15.0609C12.7687 15.0563 12.3047 14.5406 12.1922 13.9922C12.0469 13.3641 12.1078 12.6469 12.5156 12.1266C12.8344 11.7703 13.2656 11.6438 13.6875 11.7984ZM21.0047 12.1781C20.9297 12.4547 20.85 12.8063 20.9719 13.0828C21.2109 12.9891 21.225 12.6328 21.2812 12.4031C21.3234 12.1172 21.1172 11.8125 21.0047 12.1781ZM12.7453 13.1672C12.7734 13.6594 12.825 14.2359 13.2 14.4891C13.4297 14.5734 13.6547 14.3859 13.7203 14.175C13.8094 13.8797 13.8281 13.5703 13.8328 13.2656C13.8234 12.9328 13.7625 12.5625 13.5187 12.3234C12.9469 12.1172 12.8016 12.8344 12.7453 13.1672ZM20.3438 12.5063V15.375L20.1375 15.6891V13.7063C19.9219 14.0578 19.7109 14.1328 19.8516 13.6641C20.1375 13.3313 20.0766 12.8484 20.3438 12.5063ZM3.93047 13.0781C3.96797 13.2469 4.17047 13.9125 4.02609 13.7719C3.93375 13.7109 3.85641 13.5422 3.86625 13.4859C3.79359 13.3453 3.7275 13.2 3.66891 13.0547C3.53062 13.2422 3.48328 13.4438 3.52172 13.6828C3.53109 13.6078 3.57703 13.575 3.68062 13.65C4.04812 14.2406 4.25109 15.0141 4.02234 15.6891L3.91828 15.7406C3.43266 15.4688 3.38391 14.8313 3.28875 14.3344C3.21609 13.7578 3.25172 13.1766 3.39656 12.6141C3.64031 12.4359 3.82594 12.8672 3.93047 13.0781ZM3.6 14.025C3.40969 14.2453 3.49406 14.625 3.58219 14.8875C3.63422 15.1453 3.90656 15.3656 3.86625 14.9625C3.89859 14.4422 3.75703 14.3672 3.6 14.025ZM6.7125 17.2781L12 23.0484L17.2875 17.2781H6.7125ZM5.70938 17.2922L3.18562 17.5219L6.19687 19.4484C6.075 19.3219 5.96719 19.1813 5.86406 19.0359C5.62031 18.7125 5.37187 18.3984 4.97812 18.2578C4.56797 17.9531 4.78125 18.0094 5.11406 18.1359C5.06719 18.0516 5.08125 18.0141 5.11875 18.0141C5.22187 18.0047 5.5125 18.2109 5.57812 18.3094L6.73594 19.7906L9.7875 21.7453L5.70938 17.2922ZM18.2906 17.2922L16.3031 19.4625C16.6031 19.3172 16.8328 19.0641 17.1 18.8813C17.2125 18.8156 17.2734 18.7922 17.3016 18.7922C17.4 18.7922 17.0484 19.125 16.9406 19.275C16.5 19.7344 16.1906 20.3531 15.6 20.6391L16.4859 19.4906C16.3781 19.5516 16.2047 19.6406 16.1016 19.6828L14.2125 21.7453L17.7047 19.5141C17.9578 19.2 17.7937 19.2516 17.4375 19.4719L16.9031 19.7531C17.4375 19.1109 18.3469 18.4266 18.7781 18.0844C19.2094 17.7422 19.5234 17.625 19.1625 18.0141L18.5719 18.7641C19.0406 18.4078 18.6141 18.9469 18.3609 19.0219C18.3281 19.0688 18.2953 19.1156 18.2578 19.1578L20.8125 17.5219L18.2906 17.2922ZM11.0625 18.0844V20.1188H10.4344V18.7125C10.2 18.6469 9.94688 18.7922 9.71719 18.6984C9.53906 18.5625 9.76406 18.3797 9.92813 18.4219C10.0828 18.4172 10.2844 18.4313 10.3641 18.2719C10.5703 18.0609 10.8141 18.0656 11.0625 18.0844ZM12.4219 18.1078C12.9891 18.1641 13.5563 18.1359 14.1375 18.1359C14.2078 18.2766 14.175 18.5016 13.9828 18.5063C13.6219 18.5203 12.9984 18.4313 12.7687 18.5344C12.3844 19.0266 13.0359 18.7125 13.3031 18.7781C13.6312 18.8297 14.0062 18.9141 14.1984 19.2094C14.2969 19.3547 14.325 19.5516 14.2313 19.7109C13.9594 20.0297 13.4344 20.25 13.0453 20.2219C12.7031 20.1938 12.3141 20.1703 12.0797 19.8891C11.7797 19.3922 12.5719 19.575 12.6516 19.7391C12.9328 19.9875 13.6031 19.8281 13.6219 19.5188C13.65 19.3219 13.5234 19.2234 13.2984 19.1531C13.0734 19.0828 12.7078 19.2 12.4875 19.2375C12.2672 19.275 12.0375 19.2609 12.0656 19.0313C12.1031 18.8344 12.1922 18.6516 12.1922 18.4453C12.1969 18.3047 12.2719 18.1172 12.4219 18.1078ZM18.6797 18.3422C18.6703 18.3328 18.3516 18.6141 18.2156 18.7219L17.475 19.3359C17.9719 19.0313 18.3797 18.7734 18.6797 18.3422ZM7.10156 19.0078C7.21406 19.0078 7.45312 19.2234 7.54219 19.3359L8.76562 20.7938C8.40469 20.6953 8.14219 20.4609 7.94062 20.1516C7.63594 19.8094 7.41094 19.3734 6.94687 19.2328C6.525 18.9984 6.70312 18.9328 7.04531 19.1297C7.03125 19.0406 7.05469 19.0078 7.10156 19.0078Z" fill="black"/>
</svg>
