<svg width="24" height="24" viewBox="0 0 24 24" fill="none" xmlns="http://www.w3.org/2000/svg">
<path d="M1.92188 5.74194V6.39819H4.82812V5.74194H1.92188ZM9.17484 5.74194L7.67484 7.24194H6.42188V9.39819H7.86009C9.01875 7.49516 11.1131 6.22204 13.5 6.22204C15.8869 6.22204 17.9812 7.49516 19.1399 9.39819H22.8281V7.24194H19.3252L17.8252 5.74194C13.5 5.32007 13.5 5.32007 9.17484 5.74194ZM13.5 7.06579C10.317 7.06579 7.74572 9.63712 7.74572 12.8201C7.74572 16.003 10.317 18.5743 13.5 18.5743C16.683 18.5743 19.2543 16.003 19.2543 12.8201C19.2543 9.63712 16.683 7.06579 13.5 7.06579ZM1.17188 7.24194V9.39819H5.57812V7.24194H1.17188ZM13.5 7.93162C16.1948 7.93162 18.3885 10.1252 18.3885 12.82C18.3885 15.5149 16.1948 17.7085 13.5 17.7085C10.8052 17.7085 8.61155 15.5149 8.61155 12.8201C8.61155 10.1252 10.8052 7.93162 13.5 7.93162ZM12.4787 8.96483C11.9081 8.98452 11.2732 9.27074 10.7547 9.74193C9.816 10.5946 9.51989 11.7975 10.0933 12.4287C10.6666 13.0599 11.8923 12.8803 12.831 12.0276C13.7696 11.1748 14.0657 9.97185 13.4924 9.34068C13.258 9.08268 12.9008 8.95021 12.4787 8.96483H12.4787ZM1.17188 10.2419V16.8982H5.57812V10.2419H1.17188ZM6.42188 10.2419V16.8982H8.31619C7.43081 15.7751 6.90197 14.3584 6.90197 12.8201C6.90197 11.9057 7.08891 11.0343 7.42641 10.2419H6.42188ZM19.5736 10.2419C19.9111 11.0343 20.098 11.9057 20.098 12.8201C20.098 14.3584 19.5692 15.7751 18.6838 16.8982H22.8281V10.2419H19.5736ZM1.17188 17.7419V18.3982H5.57812V17.7419H1.17188ZM6.42188 17.7419V18.3982H9.97922C9.67139 18.2033 9.38095 17.9835 9.11034 17.7419H6.42188ZM17.8897 17.7419C17.619 17.9835 17.3286 18.2033 17.0208 18.3982H22.8281V17.7419H17.8897Z" fill="black"/>
</svg>
