<svg width="24" height="24" viewBox="0 0 24 24" fill="none" xmlns="http://www.w3.org/2000/svg">
<path d="M15.9975 1.06781L11.9063 5.80078L14.8667 4.22315L15.0747 4.11183L15.2827 4.22456L16.1412 4.6904L15.9976 1.06781H15.9975ZM6.08505 2.18264L7.22763 8.29547L11.3863 6.07912L6.08505 2.18264ZM15.0717 5.10797L3.90682 11.058L9.00734 13.7578L20.1387 7.86328L15.0718 5.10797H15.0717ZM17.0756 7.20262L18.2754 7.8134L9.02637 12.6856L5.8916 11.0127L7.0796 10.3843L9.02641 11.4244L17.0758 7.20267L17.0756 7.20262ZM21.3971 8.05669L21.8232 9.18309L23.0523 8.12109L21.397 8.05664L21.3971 8.05669ZM20.6572 8.57958L9.35018 14.5678L9.07915 18.4761L21.8321 11.688L20.6572 8.57958ZM4.97463 9.49664L0.776367 10.6303L2.50493 11.5474L2.79054 10.7842L2.84913 10.6289L2.99566 10.5513L4.97473 9.49659L4.97463 9.49664ZM3.36035 11.7613L2.00979 15.3706L8.18998 18.6592L8.47849 14.4697L3.3603 11.7613L3.36035 11.7613ZM19.0796 14.146L10.9116 18.4937L13.4854 23.3424L15.2578 16.7856L21.9361 18.0337L19.0796 14.1458L19.0796 14.146ZM4.98349 17.9459L4.07234 20.0465L6.75002 18.8848L4.9834 17.9458L4.98349 17.9459Z" fill="black"/>
</svg>
