<svg width="24" height="24" viewBox="0 0 24 24" fill="none" xmlns="http://www.w3.org/2000/svg">
<path d="M18.8719 7.71563C18.8719 4.01626 15.7922 0.849854 12 0.849854C8.19844 0.849854 5.12813 3.9197 5.12813 7.71563V11.1047H7.45312V7.86563C7.45312 5.34845 9.4875 3.30657 12 3.30657C14.5078 3.30657 16.5469 5.25938 16.5469 7.71563H18.8719ZM4.07344 11.9813C3.38438 13.05 3 14.2828 3 15.5813C3 19.7203 6.98438 23.1516 12 23.1516C17.0156 23.1516 21 19.7203 21 15.5813C21 14.2828 20.6109 13.05 19.9266 11.9813H4.07344ZM11.9859 13.1016C13.0312 13.1016 13.9031 13.9453 13.9031 14.9906C13.9031 15.7781 13.4062 16.4531 12.7266 16.7391L14.2594 21.3422H9.74063L11.2453 16.7391C10.5656 16.4531 10.0969 15.7734 10.0969 14.9906C10.0969 13.9453 10.9406 13.1016 11.9859 13.1016Z" fill="black"/>
</svg>
