<svg width="24" height="24" viewBox="0 0 24 24" fill="none" xmlns="http://www.w3.org/2000/svg">
<path d="M11.9194 0.811523C8.12023 0.811523 5.04635 3.88109 5.04635 7.6743V11.0625H7.37107V7.8237C7.37107 5.30848 9.40873 3.26805 11.9194 3.26805C14.4301 3.26805 16.4677 5.36543 16.4677 7.82365V11.0625H18.7924V7.67435C18.7924 3.97798 15.712 0.811523 11.9194 0.811523H11.9194ZM3.99171 11.9385C3.30687 13.0085 2.9209 14.2423 2.9209 15.5375C2.9209 19.6793 6.90387 23.1079 11.9195 23.1079C16.935 23.1079 20.918 19.6793 20.918 15.5375C20.918 14.2421 20.5308 13.0086 19.8457 11.9385H3.99162H3.99171ZM11.9062 13.0605C12.9534 13.0605 13.8222 13.9015 13.8222 14.9486C13.8222 15.7341 13.3254 16.4126 12.6445 16.7006L14.1783 21.3003H9.66063L11.1665 16.7007C10.4856 16.4126 10.0166 15.7341 10.0166 14.9488C10.0166 13.9017 10.859 13.0607 11.9062 13.0607L11.9062 13.0605Z" fill="black"/>
</svg>
