<svg width="24" height="24" viewBox="0 0 24 24" fill="none" xmlns="http://www.w3.org/2000/svg">
<path d="M7.26947 5.90366C7.24791 5.90366 7.22607 5.90413 7.20399 5.90525C6.93933 5.91861 6.63694 6.02075 6.23335 6.28981C5.21035 6.97185 3.79997 9.12083 3.05363 11.4463C2.30738 13.7718 2.20772 16.2393 3.33188 17.6791C3.52604 17.9278 3.9594 18.0977 4.44544 18.0937C4.92432 18.0898 5.41491 17.9138 5.68679 17.6512C5.73469 17.5823 6.12254 17.0261 6.68944 16.3667C7.2924 15.6654 8.03551 14.8814 8.83796 14.549C10.8003 13.7362 13.1985 13.7362 15.1608 14.549C15.9632 14.8814 16.7063 15.6655 17.3093 16.3667C17.8762 17.0262 18.2641 17.5823 18.3119 17.6513C18.5838 17.9139 19.0744 18.0898 19.5533 18.0938C20.0393 18.0978 20.4726 17.9278 20.6668 17.6791C21.7906 16.2399 21.6927 13.7615 20.947 11.4313C20.2014 9.101 18.7883 6.95352 17.7697 6.29267C17.2307 5.94299 16.8698 5.88345 16.5376 5.93455C16.2053 5.98578 15.8651 6.17816 15.4658 6.45345C14.6671 7.00405 13.6424 7.86064 11.9993 7.86064C10.3487 7.86064 9.32199 6.9928 8.52441 6.4377C8.12574 6.1602 7.78707 5.96778 7.45833 5.91842C7.39669 5.90914 7.33411 5.9038 7.26943 5.90356L7.26947 5.90366ZM17.2493 8.18881C17.4483 8.18881 17.639 8.26783 17.7797 8.40848C17.9203 8.54914 17.9993 8.7399 17.9993 8.93881C17.9993 9.13773 17.9203 9.32849 17.7797 9.46914C17.639 9.6098 17.4483 9.68881 17.2493 9.68881C17.0504 9.68881 16.8597 9.6098 16.719 9.46914C16.5784 9.32849 16.4993 9.13773 16.4993 8.93881C16.4993 8.7399 16.5784 8.54914 16.719 8.40848C16.8597 8.26783 17.0504 8.18881 17.2493 8.18881ZM6.32804 8.57811H7.17179V10.0781H8.67179V10.9219H7.17179V12.4219H6.32804V10.9219H4.82804V10.0781H6.32804V8.57811ZM15.7493 9.68881C15.9483 9.68881 16.139 9.76783 16.2797 9.90848C16.4203 10.0491 16.4993 10.2399 16.4993 10.4388C16.4993 10.6377 16.4203 10.8285 16.2797 10.9691C16.139 11.1098 15.9483 11.1888 15.7493 11.1888C15.5504 11.1888 15.3597 11.1098 15.219 10.9691C15.0784 10.8285 14.9993 10.6377 14.9993 10.4388C14.9993 10.2399 15.0784 10.0491 15.219 9.90848C15.3597 9.76783 15.5504 9.68881 15.7493 9.68881ZM18.7493 9.68881C18.9483 9.68881 19.139 9.76783 19.2797 9.90848C19.4203 10.0491 19.4993 10.2399 19.4993 10.4388C19.4993 10.6377 19.4203 10.8285 19.2797 10.9691C19.139 11.1098 18.9483 11.1888 18.7493 11.1888C18.5504 11.1888 18.3597 11.1098 18.219 10.9691C18.0784 10.8285 17.9993 10.6377 17.9993 10.4388C17.9993 10.2399 18.0784 10.0491 18.219 9.90848C18.3597 9.76783 18.5504 9.68881 18.7493 9.68881ZM17.2493 11.1888C17.4483 11.1888 17.639 11.2678 17.7797 11.4085C17.9203 11.5491 17.9993 11.7399 17.9993 11.9388C17.9993 12.1377 17.9203 12.3285 17.7797 12.4691C17.639 12.6098 17.4483 12.6888 17.2493 12.6888C17.0504 12.6888 16.8597 12.6098 16.719 12.4691C16.5784 12.3285 16.4993 12.1377 16.4993 11.9388C16.4993 11.7399 16.5784 11.5491 16.719 11.4085C16.8597 11.2678 17.0504 11.1888 17.2493 11.1888ZM9.74935 11.5169H11.2493V12.3607H9.74935V11.5169ZM12.7493 11.5169H14.057V12.3607H12.7493V11.5169Z" fill="black"/>
</svg>
