<svg width="24" height="24" viewBox="0 0 24 24" fill="none" xmlns="http://www.w3.org/2000/svg">
<path d="M8.94514 0.94873V1.66414H15.3307L13.5577 2.58711H8.94514V13.6744C8.18811 12.6971 7.00414 12.066 5.67626 12.066C3.39842 12.066 1.54236 13.9217 1.54236 16.1992C1.54236 18.4768 3.39842 20.3325 5.67626 20.3325C7.75939 20.3325 9.48955 18.7804 9.77014 16.7731C9.81889 16.5197 9.84467 16.2582 9.84467 15.9907H9.82123V9.52057H20.6V16.2365C19.8427 15.2646 18.662 14.6376 17.3384 14.6376C15.0606 14.6376 13.2044 16.4934 13.2044 18.7709C13.2044 21.0484 15.0606 22.9041 17.3384 22.9041C19.4599 22.9041 21.2152 21.2944 21.4462 19.2334C21.4811 19.0178 21.4994 18.7968 21.4994 18.5714H21.476V8.70715H12.5538L14.3268 7.78418H21.476V6.54036H12.4943L22.3586 0.94873H8.94514ZM9.82123 3.92492H15.3317L9.82123 7.04867V3.92482V3.92492ZM5.67626 12.942C7.41064 12.942 8.81998 14.2846 8.92705 15.9907H2.42553C2.53255 14.2846 3.94189 12.942 5.67626 12.942ZM17.3384 15.5137C19.0759 15.5137 20.4872 16.861 20.5897 18.5713H14.087C14.1897 16.861 15.6011 15.5137 17.3385 15.5137H17.3384Z" fill="black"/>
</svg>
