{
  "accessors": [
    {
      "bufferView": 0,
      "componentType": 5126,
      "count": 9058,
      "type": "VEC3",
      "max": [
        24.513891220092773,
        28.49315071105957,
        15.159252166748047
      ],
      "min": [
        -24.513586044311523,
        -27.317926406860352,
        -0.37239199876785278
      ]
    },
    {
      "bufferView": 1,
      "componentType": 5126,
      "count": 9058,
      "type": "VEC3",
      "max": [
        1.0,
        1.0,
        1.0
      ],
      "min": [
        -1.0,
        -1.0,
        -1.0
      ]
    },
    {
      "bufferView": 2,
      "componentType": 5126,
      "count": 9058,
      "type": "VEC4",
      "max": [
        1.0,
        1.0,
        1.0,
        1.0
      ],
      "min": [
        -1.0,
        -1.0,
        -1.0,
        -1.0
      ]
    },
    {
      "bufferView": 3,
      "componentType": 5126,
      "count": 9058,
      "type": "VEC2",
      "max": [
        9.5141730711922278E+17,
        1.5922359228134155
      ],
      "min": [
        -1.2766000032424927,
        -0.98828125
      ]
    },
    {
      "bufferView": 4,
      "componentType": 5125,
      "count": 22242,
      "type": "SCALAR",
      "max": [
        9057.0
      ],
      "min": [
        0.0
      ]
    },
    {
      "bufferView": 5,
      "componentType": 5126,
      "count": 55,
      "type": "VEC3",
      "max": [
        42.435676574707031,
        1.0,
        36.7908821105957
      ],
      "min": [
        -42.435676574707031,
        1.0,
        -36.790885925292969
      ]
    },
    {
      "bufferView": 6,
      "componentType": 5126,
      "count": 55,
      "type": "VEC3",
      "max": [
        0.0,
        1.0,
        0.0
      ],
      "min": [
        0.0,
        1.0,
        0.0
      ]
    },
    {
      "bufferView": 7,
      "componentType": 5126,
      "count": 55,
      "type": "VEC4",
      "max": [
        1.0,
        0.0,
        0.0,
        -1.0
      ],
      "min": [
        1.0,
        0.0,
        0.0,
        -1.0
      ]
    },
    {
      "bufferView": 8,
      "componentType": 5126,
      "count": 55,
      "type": "VEC2",
      "max": [
        0.99999988079071045,
        1.0
      ],
      "min": [
        -2.9802322387695313E-08,
        7.4505805969238281E-08
      ]
    },
    {
      "bufferView": 9,
      "componentType": 5126,
      "count": 55,
      "type": "VEC4",
      "max": [
        0.0,
        0.0,
        0.0,
        1.0
      ],
      "min": [
        0.0,
        0.0,
        0.0,
        0.0
      ]
    },
    {
      "bufferView": 10,
      "componentType": 5125,
      "count": 180,
      "type": "SCALAR",
      "max": [
        54.0
      ],
      "min": [
        0.0
      ]
    },
    {
      "bufferView": 11,
      "componentType": 5126,
      "count": 25,
      "type": "MAT4"
    },
    {
      "bufferView": 12,
      "componentType": 5123,
      "count": 9058,
      "type": "VEC4",
      "max": [
        24.0,
        0.0,
        0.0,
        0.0
      ],
      "min": [
        0.0,
        0.0,
        0.0,
        0.0
      ]
    },
    {
      "bufferView": 13,
      "componentType": 5126,
      "count": 9058,
      "type": "VEC4",
      "max": [
        1.0,
        0.0,
        0.0,
        0.0
      ],
      "min": [
        1.0,
        0.0,
        0.0,
        0.0
      ]
    }
  ],
  "asset": {
    "generator": "Plattar UnityGLTF (2020.3.11f1c1)",
    "version": "2.0"
  },
  "buffers": [
    {
      "uri": "jt06.bin",
      "byteLength": 746984
    }
  ],
  "bufferViews": [
    {
      "buffer": 0,
      "byteLength": 108696
    },
    {
      "buffer": 0,
      "byteOffset": 108696,
      "byteLength": 108696
    },
    {
      "buffer": 0,
      "byteOffset": 217392,
      "byteLength": 144928
    },
    {
      "buffer": 0,
      "byteOffset": 362320,
      "byteLength": 72464
    },
    {
      "buffer": 0,
      "byteOffset": 434784,
      "byteLength": 88968
    },
    {
      "buffer": 0,
      "byteOffset": 523752,
      "byteLength": 660
    },
    {
      "buffer": 0,
      "byteOffset": 524412,
      "byteLength": 660
    },
    {
      "buffer": 0,
      "byteOffset": 525072,
      "byteLength": 880
    },
    {
      "buffer": 0,
      "byteOffset": 525952,
      "byteLength": 440
    },
    {
      "buffer": 0,
      "byteOffset": 526392,
      "byteLength": 880
    },
    {
      "buffer": 0,
      "byteOffset": 527272,
      "byteLength": 720
    },
    {
      "buffer": 0,
      "byteOffset": 527992,
      "byteLength": 1600
    },
    {
      "buffer": 0,
      "byteOffset": 529592,
      "byteLength": 72464
    },
    {
      "buffer": 0,
      "byteOffset": 602056,
      "byteLength": 144928
    }
  ],
  "images": [
    {
      "uri": "jt13_D.jpg",
      "name": "jt13_D"
    },
    {
      "uri": "saidao.jpg",
      "name": "saidao"
    }
  ],
  "materials": [
    {
      "pbrMetallicRoughness": {
        "baseColorTexture": {
          "index": 0
        },
        "metallicFactor": 0.0
      },
      "name": "_747_01"
    },
    {
      "pbrMetallicRoughness": {
        "baseColorTexture": {
          "index": 1
        },
        "metallicFactor": 0.0
      },
      "name": "saidao"
    }
  ],
  "meshes": [
    {
      "primitives": [
        {
          "attributes": {
            "POSITION": 0,
            "NORMAL": 1,
            "TANGENT": 2,
            "TEXCOORD_0": 3,
            "JOINTS_0": 12,
            "WEIGHTS_0": 13
          },
          "indices": 4,
          "material": 0
        }
      ],
      "name": "Box001"
    },
    {
      "primitives": [
        {
          "attributes": {
            "POSITION": 5,
            "NORMAL": 6,
            "TANGENT": 7,
            "TEXCOORD_0": 8,
            "COLOR_0": 9
          },
          "indices": 10,
          "material": 1
        }
      ],
      "name": "dimian"
    }
  ],
  "nodes": [
    {
      "children": [
        1,
        2,
        3,
        4,
        29,
        30,
        31,
        32,
        33,
        34,
        36
      ],
      "rotation": [
        0.0,
        -0.7071068,
        0.0,
        -0.7071068
      ],
      "scale": [
        0.0141201671,
        0.0141201653,
        0.0141201727
      ],
      "name": "jt06"
    },
    {
      "skin": 0,
      "mesh": 0,
      "rotation": [
        -0.7071068,
        0.0,
        0.0,
        -0.7071068
      ],
      "name": "Box001"
    },
    {
      "rotation": [
        0.0,
        0.7071068,
        0.0,
        -0.7071068
      ],
      "scale": [
        0.708206832,
        0.708207,
        0.70820713
      ],
      "translation": [
        -88.5259247,
        -7.0820694,
        -251.4136
      ],
      "name": "C"
    },
    {
      "mesh": 1,
      "rotation": [
        0.0,
        0.0,
        0.0,
        -1.0
      ],
      "scale": [
        0.0,
        0.0,
        0.0
      ],
      "name": "dimian"
    },
    {
      "children": [
        5,
        7,
        10,
        13,
        14,
        15,
        16,
        17,
        19,
        21,
        23,
        25,
        26,
        27,
        28
      ],
      "rotation": [
        -0.7372774,
        -3.231156E-22,
        -8.83578E-25,
        -0.675590158
      ],
      "translation": [
        6.237704E-08,
        13.6147394,
        -1.427021
      ],
      "name": "Dummy001"
    },
    {
      "children": [
        6
      ],
      "rotation": [
        0.5609853,
        -0.430459023,
        -0.5609857,
        0.4304597
      ],
      "translation": [
        -6.237704E-08,
        -22.10809,
        0.908627152
      ],
      "name": "Bone002"
    },
    {
      "rotation": [
        0.7071068,
        -5.3385083E-08,
        -0.707106769,
        -5.33850866E-08
      ],
      "translation": [
        -2.79169583,
        -0.00704995729,
        -1.513958E-07
      ],
      "name": "Dummy002"
    },
    {
      "children": [
        8,
        9
      ],
      "rotation": [
        -0.5000002,
        0.499999821,
        0.499999821,
        -0.5000002
      ],
      "scale": [
        0.9999999,
        0.9999999,
        1.0
      ],
      "translation": [
        -6.237704E-08,
        2.220913,
        0.9061625
      ],
      "name": "Bone003"
    },
    {
      "rotation": [
        0.7071068,
        -5.3385083E-08,
        -0.707106769,
        -5.33850866E-08
      ],
      "scale": [
        1.0,
        0.99999994,
        0.99999994
      ],
      "translation": [
        -2.7513628,
        0.5863752,
        1.27172473E-06
      ],
      "name": "Dummy005"
    },
    {
      "rotation": [
        0.7071068,
        -5.3385083E-08,
        -0.707106769,
        -5.33850866E-08
      ],
      "scale": [
        1.0,
        0.99999994,
        0.99999994
      ],
      "translation": [
        -2.7513628,
        -0.5822786,
        5.450249E-07
      ],
      "name": "Dummy006"
    },
    {
      "children": [
        11,
        12
      ],
      "rotation": [
        -0.5000003,
        0.4999997,
        0.4999997,
        -0.5000003
      ],
      "scale": [
        0.5033092,
        0.5033092,
        0.5033092
      ],
      "translation": [
        -6.237704E-08,
        -1.150729,
        1.32880592
      ],
      "name": "Bone004"
    },
    {
      "rotation": [
        0.7071068,
        -5.338508E-08,
        -0.707106769,
        -5.33850866E-08
      ],
      "translation": [
        -2.74883533,
        0.5863283,
        1.42312035E-06
      ],
      "name": "Dummy003"
    },
    {
      "rotation": [
        0.7071068,
        -5.338508E-08,
        -0.707106769,
        -5.33850866E-08
      ],
      "translation": [
        -2.74883533,
        -0.5820713,
        1.13546619E-07
      ],
      "name": "Dummy004"
    },
    {
      "rotation": [
        0.97385776,
        0.0257721581,
        -0.172623813,
        -0.145388827
      ],
      "scale": [
        0.9999999,
        1.0,
        1.0
      ],
      "translation": [
        0.825833261,
        -22.2829285,
        1.572912
      ],
      "name": "Bone005"
    },
    {
      "rotation": [
        0.025771616,
        0.973857641,
        0.14538981,
        0.172623873
      ],
      "scale": [
        0.9999999,
        1.0,
        1.0
      ],
      "translation": [
        -0.8257539,
        -22.2829285,
        1.57291794
      ],
      "name": "Bone005_mirrored_"
    },
    {
      "rotation": [
        0.9944325,
        0.00418879,
        -0.0434177369,
        -0.09592417
      ],
      "translation": [
        0.5744823,
        -20.63207,
        2.13401079
      ],
      "name": "Bone006"
    },
    {
      "rotation": [
        0.00418786937,
        0.9944324,
        0.09592514,
        0.0434179381
      ],
      "translation": [
        -0.5173658,
        -20.63207,
        2.134015
      ],
      "name": "Bone006_mirrored_"
    },
    {
      "children": [
        18
      ],
      "rotation": [
        -0.687496,
        -0.165376022,
        0.165377617,
        -0.687495649
      ],
      "scale": [
        0.9999999,
        0.9999999,
        1.0
      ],
      "translation": [
        2.52977586,
        1.427021,
        2.300523
      ],
      "name": "Bone007"
    },
    {
      "rotation": [
        2.22532925E-08,
        1.09938869E-09,
        -0.184382945,
        -0.9828545
      ],
      "translation": [
        -0.8723385,
        -1.06582693E-05,
        1.783767E-08
      ],
      "name": "Bone008"
    },
    {
      "children": [
        20
      ],
      "rotation": [
        0.135232136,
        0.6940573,
        -0.694052935,
        0.135230482
      ],
      "scale": [
        0.9999998,
        0.9999998,
        1.0
      ],
      "translation": [
        -2.30145,
        1.42702,
        2.30052185
      ],
      "name": "Bone007_mirrored_"
    },
    {
      "rotation": [
        -4.021188E-09,
        -2.14349818E-08,
        0.184382841,
        -0.982854545
      ],
      "translation": [
        -0.8723385,
        1.05392892E-05,
        0.0
      ],
      "name": "Bone008_mirrored_"
    },
    {
      "children": [
        22
      ],
      "rotation": [
        -0.000811370963,
        0.7070875,
        -0.7071252,
        -0.0007738544
      ],
      "translation": [
        0.553720057,
        -0.8564492,
        2.64193988
      ],
      "name": "Bone009"
    },
    {
      "rotation": [
        3.69491022E-06,
        -1.27907806E-05,
        0.439601,
        -0.8981932
      ],
      "translation": [
        -1.377805,
        -4.84466568E-07,
        2.179919E-08
      ],
      "name": "Bone010"
    },
    {
      "children": [
        24
      ],
      "rotation": [
        -0.707096934,
        0.000811449,
        -0.0007738309,
        -0.707115769
      ],
      "translation": [
        -0.5537202,
        -0.8564497,
        2.418545
      ],
      "name": "Bone009_mirrored_"
    },
    {
      "rotation": [
        -7.4666E-06,
        -2.542065E-05,
        -0.439601451,
        -0.898193
      ],
      "translation": [
        -1.377805,
        4.84466568E-07,
        -2.42233284E-07
      ],
      "name": "Bone010_mirrored_"
    },
    {
      "rotation": [
        -0.7071068,
        -3.37174839E-07,
        -3.37174839E-07,
        -0.7071068
      ],
      "scale": [
        0.9999999,
        0.9999999,
        1.0
      ],
      "translation": [
        -0.301402,
        1.427021,
        2.40787077
      ],
      "name": "Bone011"
    },
    {
      "rotation": [
        -3.766279E-07,
        0.7071068,
        -0.7071068,
        3.766279E-07
      ],
      "translation": [
        0.5536978,
        1.42702,
        2.40787077
      ],
      "name": "Bone011_mirrored_"
    },
    {
      "rotation": [
        0.704619348,
        0.05918724,
        0.0591771528,
        -0.7046322
      ],
      "scale": [
        0.9999999,
        0.9999999,
        1.0
      ],
      "translation": [
        4.984926,
        -0.5885813,
        1.858229
      ],
      "name": "Bone012"
    },
    {
      "rotation": [
        -0.0591902658,
        -0.7046191,
        -0.704632461,
        0.05917405
      ],
      "scale": [
        1.0,
        0.9999999,
        1.0
      ],
      "translation": [
        -5.082625,
        -0.58858037,
        1.858229
      ],
      "name": "Bone012_mirrored_"
    },
    {
      "rotation": [
        0.0,
        0.7071068,
        0.0,
        -0.7071068
      ],
      "scale": [
        0.708206832,
        0.708207,
        0.70820713
      ],
      "translation": [
        -88.5259552,
        -7.0820694,
        -251.413651
      ],
      "name": "E"
    },
    {
      "rotation": [
        0.9999988,
        6.113609E-17,
        -6.113609E-17,
        -0.001570745
      ],
      "translation": [
        1.5,
        14.5,
        -35.5
      ],
      "name": "qiliu"
    },
    {
      "rotation": [
        0.0,
        0.7071068,
        0.0,
        -0.7071068
      ],
      "scale": [
        0.708206832,
        0.708207,
        0.70820713
      ],
      "translation": [
        -88.5258942,
        -7.0820694,
        -251.413528
      ],
      "name": "T1"
    },
    {
      "rotation": [
        0.0,
        0.7071068,
        0.0,
        -0.7071068
      ],
      "scale": [
        0.708206832,
        0.708207,
        0.70820713
      ],
      "translation": [
        -88.5259247,
        -7.0820694,
        -251.413589
      ],
      "name": "T2"
    },
    {
      "rotation": [
        0.0,
        0.7071068,
        0.0,
        -0.7071068
      ],
      "scale": [
        0.708206832,
        0.708207,
        0.70820713
      ],
      "translation": [
        -88.5259552,
        -7.0820694,
        -251.4136
      ],
      "name": "T3"
    },
    {
      "children": [
        35
      ],
      "rotation": [
        -6.123234E-17,
        1.0,
        -6.123234E-17,
        -6.123234E-17
      ],
      "translation": [
        0.0,
        0.5,
        0.0
      ],
      "name": "yan_L1"
    },
    {
      "rotation": [
        0.0,
        0.0,
        0.0,
        -1.0
      ],
      "translation": [
        -7.33999968,
        0.0,
        0.0
      ],
      "name": "yan_R1"
    },
    {
      "rotation": [
        -6.123234E-17,
        1.0,
        -6.123234E-17,
        -6.123234E-17
      ],
      "translation": [
        0.0,
        13.0,
        -7.39999962
      ],
      "name": "yun"
    }
  ],
  "samplers": [
    {
      "minFilter": 9729
    },
    {
      "minFilter": 9987
    }
  ],
  "scene": 0,
  "scenes": [
    {
      "nodes": [
        0
      ],
      "name": "jt06"
    }
  ],
  "skins": [
    {
      "inverseBindMatrices": 11,
      "joints": [
        4,
        16,
        5,
        14,
        28,
        15,
        13,
        27,
        7,
        9,
        8,
        25,
        20,
        18,
        26,
        10,
        12,
        11,
        6,
        17,
        22,
        21,
        19,
        24,
        23
      ]
    }
  ],
  "textures": [
    {
      "sampler": 0,
      "source": 0,
      "name": "jt13_D"
    },
    {
      "sampler": 1,
      "source": 1,
      "name": "saidao"
    }
  ]
}