{
  "accessors": [
    {
      "bufferView": 0,
      "componentType": 5126,
      "count": 2645,
      "type": "VEC3",
      "max": [
        24.70263671875,
        78.269485473632813,
        24.38252067565918
      ],
      "min": [
        -24.70263671875,
        -0.0015120506286621094,
        -25.02275276184082
      ]
    },
    {
      "bufferView": 1,
      "componentType": 5126,
      "count": 2645,
      "type": "VEC3",
      "max": [
        1.0,
        1.0,
        1.0
      ],
      "min": [
        -1.0,
        -0.99998283386230469,
        -1.0
      ]
    },
    {
      "bufferView": 2,
      "componentType": 5126,
      "count": 2645,
      "type": "VEC4",
      "max": [
        0.99999368190765381,
        1.0,
        0.99995291233062744,
        1.0
      ],
      "min": [
        -0.99997687339782715,
        -1.0,
        -0.99951112270355225,
        -1.0
      ]
    },
    {
      "bufferView": 3,
      "componentType": 5126,
      "count": 2645,
      "type": "VEC2",
      "max": [
        0.9794076681137085,
        0.98523098230361938
      ],
      "min": [
        0.014015555381774902,
        0.011260021477937698
      ]
    },
    {
      "bufferView": 4,
      "componentType": 5125,
      "count": 13680,
      "type": "SCALAR",
      "max": [
        2644.0
      ],
      "min": [
        0.0
      ]
    },
    {
      "bufferView": 5,
      "componentType": 5126,
      "count": 45,
      "type": "SCALAR",
      "max": [
        1.4666666984558105
      ],
      "min": [
        0.0
      ]
    },
    {
      "bufferView": 6,
      "componentType": 5126,
      "count": 45,
      "type": "VEC3",
      "max": [
        0.0,
        0.066979497671127319,
        0.0
      ],
      "min": [
        0.0,
        0.046000000089406967,
        0.0
      ]
    },
    {
      "bufferView": 7,
      "componentType": 5126,
      "count": 45,
      "type": "VEC4",
      "max": [
        0.0,
        0.0,
        0.0,
        1.0
      ],
      "min": [
        0.0,
        0.0,
        0.0,
        1.0
      ]
    },
    {
      "bufferView": 8,
      "componentType": 5126,
      "count": 45,
      "type": "VEC3",
      "max": [
        0.004999999888241291,
        0.004999999888241291,
        0.004999999888241291
      ],
      "min": [
        0.004999999888241291,
        0.004999999888241291,
        0.004999999888241291
      ]
    },
    {
      "bufferView": 9,
      "componentType": 5126,
      "count": 419,
      "type": "SCALAR",
      "max": [
        13.949959754943848
      ],
      "min": [
        0.0
      ]
    },
    {
      "bufferView": 10,
      "componentType": 5126,
      "count": 419,
      "type": "VEC3",
      "max": [
        0.0,
        0.56687742471694946,
        0.065777488052845
      ],
      "min": [
        0.0,
        0.0,
        -0.88798278570175171
      ]
    },
    {
      "bufferView": 11,
      "componentType": 5126,
      "count": 419,
      "type": "VEC4",
      "max": [
        0.0,
        0.0,
        0.0,
        1.0
      ],
      "min": [
        0.0,
        0.0,
        0.0,
        1.0
      ]
    },
    {
      "bufferView": 12,
      "componentType": 5126,
      "count": 419,
      "type": "VEC3",
      "max": [
        0.004999999888241291,
        0.004999999888241291,
        0.004999999888241291
      ],
      "min": [
        0.004999999888241291,
        0.004999999888241291,
        0.004999999888241291
      ]
    },
    {
      "bufferView": 13,
      "componentType": 5126,
      "count": 419,
      "type": "SCALAR",
      "max": [
        13.949959754943848
      ],
      "min": [
        0.0
      ]
    },
    {
      "bufferView": 14,
      "componentType": 5126,
      "count": 419,
      "type": "VEC3",
      "max": [
        0.0,
        18.340000152587891,
        0.0
      ],
      "min": [
        0.0,
        18.340000152587891,
        0.0
      ]
    },
    {
      "bufferView": 15,
      "componentType": 5126,
      "count": 419,
      "type": "VEC4",
      "max": [
        -0.7071068286895752,
        0.0,
        0.0,
        0.7071068286895752
      ],
      "min": [
        -0.7071068286895752,
        0.0,
        0.0,
        0.7071068286895752
      ]
    },
    {
      "bufferView": 16,
      "componentType": 5126,
      "count": 419,
      "type": "VEC3",
      "max": [
        1.0,
        1.0,
        1.0
      ],
      "min": [
        1.0,
        1.0,
        1.0
      ]
    },
    {
      "bufferView": 17,
      "componentType": 5126,
      "count": 419,
      "type": "SCALAR",
      "max": [
        13.949959754943848
      ],
      "min": [
        0.0
      ]
    },
    {
      "bufferView": 18,
      "componentType": 5126,
      "count": 419,
      "type": "VEC3",
      "max": [
        0.0,
        16.209999084472656,
        0.0
      ],
      "min": [
        0.0,
        16.209999084472656,
        0.0
      ]
    },
    {
      "bufferView": 19,
      "componentType": 5126,
      "count": 419,
      "type": "VEC4",
      "max": [
        -0.7071068286895752,
        0.0,
        0.0,
        0.7071068286895752
      ],
      "min": [
        -0.7071068286895752,
        0.0,
        0.0,
        0.7071068286895752
      ]
    },
    {
      "bufferView": 20,
      "componentType": 5126,
      "count": 419,
      "type": "VEC3",
      "max": [
        1.0,
        1.0,
        1.0
      ],
      "min": [
        1.0,
        1.0,
        1.0
      ]
    },
    {
      "bufferView": 21,
      "componentType": 5126,
      "count": 419,
      "type": "SCALAR",
      "max": [
        13.949959754943848
      ],
      "min": [
        0.0
      ]
    },
    {
      "bufferView": 22,
      "componentType": 5126,
      "count": 419,
      "type": "VEC3",
      "max": [
        0.0,
        2.2000000476837158,
        -0.27000001072883606
      ],
      "min": [
        0.0,
        2.2000000476837158,
        -0.27000001072883606
      ]
    },
    {
      "bufferView": 23,
      "componentType": 5126,
      "count": 419,
      "type": "VEC4",
      "max": [
        0.7071068286895752,
        0.0,
        0.0,
        0.7071068286895752
      ],
      "min": [
        0.7071068286895752,
        0.0,
        0.0,
        0.7071068286895752
      ]
    },
    {
      "bufferView": 24,
      "componentType": 5126,
      "count": 419,
      "type": "VEC3",
      "max": [
        1.0,
        1.0,
        1.0
      ],
      "min": [
        1.0,
        1.0,
        1.0
      ]
    },
    {
      "bufferView": 25,
      "componentType": 5126,
      "count": 419,
      "type": "SCALAR",
      "max": [
        13.949959754943848
      ],
      "min": [
        0.0
      ]
    },
    {
      "bufferView": 26,
      "componentType": 5126,
      "count": 419,
      "type": "VEC3",
      "max": [
        0.0,
        38.0,
        0.0
      ],
      "min": [
        0.0,
        38.0,
        0.0
      ]
    },
    {
      "bufferView": 27,
      "componentType": 5126,
      "count": 419,
      "type": "VEC4",
      "max": [
        -0.7071068286895752,
        0.0,
        0.0,
        0.7071068286895752
      ],
      "min": [
        -0.7071068286895752,
        0.0,
        0.0,
        0.7071068286895752
      ]
    },
    {
      "bufferView": 28,
      "componentType": 5126,
      "count": 419,
      "type": "VEC3",
      "max": [
        1.0,
        1.0,
        1.0
      ],
      "min": [
        1.0,
        1.0,
        1.0
      ]
    },
    {
      "bufferView": 29,
      "componentType": 5126,
      "count": 419,
      "type": "SCALAR",
      "max": [
        13.949959754943848
      ],
      "min": [
        0.0
      ]
    },
    {
      "bufferView": 30,
      "componentType": 5126,
      "count": 419,
      "type": "VEC3",
      "max": [
        -710.0,
        -20.0,
        -250.0
      ],
      "min": [
        -710.0,
        -20.0,
        -250.0
      ]
    },
    {
      "bufferView": 31,
      "componentType": 5126,
      "count": 419,
      "type": "VEC4",
      "max": [
        0.0,
        0.0,
        0.0,
        1.0
      ],
      "min": [
        0.0,
        0.0,
        0.0,
        1.0
      ]
    },
    {
      "bufferView": 32,
      "componentType": 5126,
      "count": 419,
      "type": "VEC3",
      "max": [
        2.0,
        2.0,
        2.0
      ],
      "min": [
        2.0,
        2.0,
        2.0
      ]
    }
  ],
  "animations": [
    {
      "channels": [
        {
          "sampler": 0,
          "target": {
            "node": 0,
            "path": "translation"
          }
        },
        {
          "sampler": 1,
          "target": {
            "node": 0,
            "path": "rotation"
          }
        },
        {
          "sampler": 2,
          "target": {
            "node": 0,
            "path": "scale"
          }
        }
      ],
      "samplers": [
        {
          "input": 5,
          "output": 6
        },
        {
          "input": 5,
          "output": 7
        },
        {
          "input": 5,
          "output": 8
        }
      ],
      "name": "jt09"
    },
    {
      "channels": [
        {
          "sampler": 0,
          "target": {
            "node": 0,
            "path": "translation"
          }
        },
        {
          "sampler": 1,
          "target": {
            "node": 0,
            "path": "rotation"
          }
        },
        {
          "sampler": 2,
          "target": {
            "node": 0,
            "path": "scale"
          }
        },
        {
          "sampler": 3,
          "target": {
            "node": 2,
            "path": "translation"
          }
        },
        {
          "sampler": 4,
          "target": {
            "node": 2,
            "path": "rotation"
          }
        },
        {
          "sampler": 5,
          "target": {
            "node": 2,
            "path": "scale"
          }
        },
        {
          "sampler": 6,
          "target": {
            "node": 4,
            "path": "translation"
          }
        },
        {
          "sampler": 7,
          "target": {
            "node": 4,
            "path": "rotation"
          }
        },
        {
          "sampler": 8,
          "target": {
            "node": 4,
            "path": "scale"
          }
        },
        {
          "sampler": 9,
          "target": {
            "node": 7,
            "path": "translation"
          }
        },
        {
          "sampler": 10,
          "target": {
            "node": 7,
            "path": "rotation"
          }
        },
        {
          "sampler": 11,
          "target": {
            "node": 7,
            "path": "scale"
          }
        },
        {
          "sampler": 12,
          "target": {
            "node": 6,
            "path": "translation"
          }
        },
        {
          "sampler": 13,
          "target": {
            "node": 6,
            "path": "rotation"
          }
        },
        {
          "sampler": 14,
          "target": {
            "node": 6,
            "path": "scale"
          }
        },
        {
          "sampler": 15,
          "target": {
            "node": 11,
            "path": "translation"
          }
        },
        {
          "sampler": 16,
          "target": {
            "node": 11,
            "path": "rotation"
          }
        },
        {
          "sampler": 17,
          "target": {
            "node": 11,
            "path": "scale"
          }
        }
      ],
      "samplers": [
        {
          "input": 9,
          "output": 10
        },
        {
          "input": 9,
          "output": 11
        },
        {
          "input": 9,
          "output": 12
        },
        {
          "input": 13,
          "output": 14
        },
        {
          "input": 13,
          "output": 15
        },
        {
          "input": 13,
          "output": 16
        },
        {
          "input": 17,
          "output": 18
        },
        {
          "input": 17,
          "output": 19
        },
        {
          "input": 17,
          "output": 20
        },
        {
          "input": 21,
          "output": 22
        },
        {
          "input": 21,
          "output": 23
        },
        {
          "input": 21,
          "output": 24
        },
        {
          "input": 25,
          "output": 26
        },
        {
          "input": 25,
          "output": 27
        },
        {
          "input": 25,
          "output": 28
        },
        {
          "input": 29,
          "output": 30
        },
        {
          "input": 29,
          "output": 31
        },
        {
          "input": 29,
          "output": 32
        }
      ],
      "name": "jt09"
    }
  ],
  "asset": {
    "generator": "Plattar UnityGLTF (2020.3.11f1c1)",
    "version": "2.0"
  },
  "buffers": [
    {
      "uri": "jt09.bin",
      "byteLength": 294276
    }
  ],
  "bufferViews": [
    {
      "buffer": 0,
      "byteLength": 31740
    },
    {
      "buffer": 0,
      "byteOffset": 31740,
      "byteLength": 31740
    },
    {
      "buffer": 0,
      "byteOffset": 63480,
      "byteLength": 42320
    },
    {
      "buffer": 0,
      "byteOffset": 105800,
      "byteLength": 21160
    },
    {
      "buffer": 0,
      "byteOffset": 126960,
      "byteLength": 54720
    },
    {
      "buffer": 0,
      "byteOffset": 181680,
      "byteLength": 180
    },
    {
      "buffer": 0,
      "byteOffset": 181860,
      "byteLength": 540
    },
    {
      "buffer": 0,
      "byteOffset": 182400,
      "byteLength": 720
    },
    {
      "buffer": 0,
      "byteOffset": 183120,
      "byteLength": 540
    },
    {
      "buffer": 0,
      "byteOffset": 183660,
      "byteLength": 1676
    },
    {
      "buffer": 0,
      "byteOffset": 185336,
      "byteLength": 5028
    },
    {
      "buffer": 0,
      "byteOffset": 190364,
      "byteLength": 6704
    },
    {
      "buffer": 0,
      "byteOffset": 197068,
      "byteLength": 5028
    },
    {
      "buffer": 0,
      "byteOffset": 202096,
      "byteLength": 1676
    },
    {
      "buffer": 0,
      "byteOffset": 203772,
      "byteLength": 5028
    },
    {
      "buffer": 0,
      "byteOffset": 208800,
      "byteLength": 6704
    },
    {
      "buffer": 0,
      "byteOffset": 215504,
      "byteLength": 5028
    },
    {
      "buffer": 0,
      "byteOffset": 220532,
      "byteLength": 1676
    },
    {
      "buffer": 0,
      "byteOffset": 222208,
      "byteLength": 5028
    },
    {
      "buffer": 0,
      "byteOffset": 227236,
      "byteLength": 6704
    },
    {
      "buffer": 0,
      "byteOffset": 233940,
      "byteLength": 5028
    },
    {
      "buffer": 0,
      "byteOffset": 238968,
      "byteLength": 1676
    },
    {
      "buffer": 0,
      "byteOffset": 240644,
      "byteLength": 5028
    },
    {
      "buffer": 0,
      "byteOffset": 245672,
      "byteLength": 6704
    },
    {
      "buffer": 0,
      "byteOffset": 252376,
      "byteLength": 5028
    },
    {
      "buffer": 0,
      "byteOffset": 257404,
      "byteLength": 1676
    },
    {
      "buffer": 0,
      "byteOffset": 259080,
      "byteLength": 5028
    },
    {
      "buffer": 0,
      "byteOffset": 264108,
      "byteLength": 6704
    },
    {
      "buffer": 0,
      "byteOffset": 270812,
      "byteLength": 5028
    },
    {
      "buffer": 0,
      "byteOffset": 275840,
      "byteLength": 1676
    },
    {
      "buffer": 0,
      "byteOffset": 277516,
      "byteLength": 5028
    },
    {
      "buffer": 0,
      "byteOffset": 282544,
      "byteLength": 6704
    },
    {
      "buffer": 0,
      "byteOffset": 289248,
      "byteLength": 5028
    }
  ],
  "images": [
    {
      "uri": "jt14_D.png",
      "name": "jt14_D"
    }
  ],
  "materials": [
    {
      "pbrMetallicRoughness": {
        "baseColorTexture": {
          "index": 0
        },
        "metallicFactor": 0.0,
        "roughnessFactor": 0.5
      },
      "name": "jt14_D"
    }
  ],
  "meshes": [
    {
      "primitives": [
        {
          "attributes": {
            "POSITION": 0,
            "NORMAL": 1,
            "TANGENT": 2,
            "TEXCOORD_0": 3
          },
          "indices": 4,
          "material": 0
        }
      ],
      "name": "pCube5"
    }
  ],
  "nodes": [
    {
      "children": [
        1,
        2,
        4,
        6,
        7,
        8,
        9,
        10,
        11,
        12,
        13,
        14
      ],
      "rotation": [
        0.0,
        0.0,
        0.0,
        -1.0
      ],
      "scale": [
        0.005,
        0.005,
        0.005
      ],
      "name": "jt09"
    },
    {
      "mesh": 0,
      "rotation": [
        0.0,
        0.0,
        0.0,
        -1.0
      ],
      "name": "pCube5"
    },
    {
      "children": [
        3
      ],
      "rotation": [
        -0.7071068,
        0.0,
        0.0,
        -0.7071068
      ],
      "translation": [
        0.0,
        18.34,
        0.0
      ],
      "name": "fire"
    },
    {
      "rotation": [
        0.0,
        0.0,
        0.0,
        -1.0
      ],
      "name": "1"
    },
    {
      "children": [
        5
      ],
      "rotation": [
        -0.7071068,
        0.0,
        0.0,
        -0.7071068
      ],
      "translation": [
        0.0,
        16.21,
        0.0
      ],
      "name": "fire_Play"
    },
    {
      "rotation": [
        0.0,
        0.0,
        0.0,
        -1.0
      ],
      "translation": [
        0.0,
        0.0,
        0.06
      ],
      "name": "1"
    },
    {
      "rotation": [
        -0.7071068,
        0.0,
        0.0,
        -0.7071068
      ],
      "translation": [
        0.0,
        38.0,
        0.0
      ],
      "name": "Effects_1"
    },
    {
      "rotation": [
        0.7071068,
        0.0,
        0.0,
        -0.7071068
      ],
      "translation": [
        0.0,
        2.2,
        0.27
      ],
      "name": "star"
    },
    {
      "rotation": [
        -0.590127,
        0.0,
        0.0,
        -0.8073105
      ],
      "translation": [
        0.0,
        3.02998734,
        0.709991455
      ],
      "name": "xin"
    },
    {
      "rotation": [
        0.0,
        0.0,
        0.0,
        -1.0
      ],
      "scale": [
        2.0,
        2.0,
        2.0
      ],
      "translation": [
        -710.0,
        -20.0,
        250.0
      ],
      "name": "T1"
    },
    {
      "rotation": [
        0.0,
        0.0,
        0.0,
        -1.0
      ],
      "scale": [
        2.0,
        2.0,
        2.0
      ],
      "translation": [
        -710.0,
        -20.0,
        250.0
      ],
      "name": "T2"
    },
    {
      "rotation": [
        0.0,
        0.0,
        0.0,
        -1.0
      ],
      "scale": [
        2.0,
        2.0,
        2.0
      ],
      "translation": [
        -710.0,
        -20.0,
        250.0
      ],
      "name": "T3"
    },
    {
      "rotation": [
        0.0,
        0.0,
        0.0,
        -1.0
      ],
      "scale": [
        2.0,
        2.0,
        2.0
      ],
      "translation": [
        -710.0,
        -20.0,
        250.0
      ],
      "name": "T4"
    },
    {
      "rotation": [
        0.0,
        0.0,
        0.0,
        -1.0
      ],
      "scale": [
        2.0,
        2.0,
        2.0
      ],
      "translation": [
        -710.0,
        -20.0,
        250.0
      ],
      "name": "E"
    },
    {
      "rotation": [
        0.0,
        0.0,
        0.0,
        -1.0
      ],
      "scale": [
        2.0,
        2.0,
        2.0
      ],
      "translation": [
        -710.0,
        -20.0,
        250.0
      ],
      "name": "C"
    }
  ],
  "samplers": [
    {
      "minFilter": 9729
    }
  ],
  "scene": 0,
  "scenes": [
    {
      "nodes": [
        0
      ],
      "name": "jt09"
    }
  ],
  "textures": [
    {
      "sampler": 0,
      "source": 0,
      "name": "jt14_D"
    }
  ]
}